<mxfile host="app.diagrams.net" modified="2024-02-09T09:47:05.930Z" agent="Mozilla/5.0 (Macintosh; Intel Mac OS X 10_15_7) AppleWebKit/537.36 (KHTML, like Gecko) Chrome/118.0.0.0 Safari/537.36" etag="4uIltVleuJiSir2ZGDTV" version="22.1.20" type="github">
  <diagram name="Sida-1" id="AtAtbLV7x9WaWJLZUODg">
    <mxGraphModel dx="1781" dy="545" grid="1" gridSize="10" guides="1" tooltips="1" connect="1" arrows="1" fold="1" page="1" pageScale="1" pageWidth="827" pageHeight="1169" math="0" shadow="0">
      <root>
        <mxCell id="0" />
        <mxCell id="1" parent="0" />
        <mxCell id="D9tbcZHyD1_BeI-9zsL_-4" style="edgeStyle=orthogonalEdgeStyle;rounded=0;orthogonalLoop=1;jettySize=auto;html=1;entryX=0;entryY=0.5;entryDx=0;entryDy=0;endArrow=none;endFill=0;" parent="1" source="D9tbcZHyD1_BeI-9zsL_-1" target="D9tbcZHyD1_BeI-9zsL_-2" edge="1">
          <mxGeometry relative="1" as="geometry" />
        </mxCell>
        <mxCell id="D9tbcZHyD1_BeI-9zsL_-1" value="Collect" style="html=1;whiteSpace=wrap;" parent="1" vertex="1">
          <mxGeometry x="-540" y="40" width="110" height="50" as="geometry" />
        </mxCell>
        <mxCell id="D9tbcZHyD1_BeI-9zsL_-5" style="edgeStyle=orthogonalEdgeStyle;rounded=0;orthogonalLoop=1;jettySize=auto;html=1;endArrow=none;endFill=0;" parent="1" source="D9tbcZHyD1_BeI-9zsL_-2" target="D9tbcZHyD1_BeI-9zsL_-3" edge="1">
          <mxGeometry relative="1" as="geometry" />
        </mxCell>
        <mxCell id="D9tbcZHyD1_BeI-9zsL_-2" value="transform" style="html=1;whiteSpace=wrap;" parent="1" vertex="1">
          <mxGeometry x="359" y="30" width="110" height="50" as="geometry" />
        </mxCell>
        <mxCell id="D9tbcZHyD1_BeI-9zsL_-3" value="publish(externsystem)" style="html=1;whiteSpace=wrap;" parent="1" vertex="1">
          <mxGeometry x="835" y="30" width="140" height="50" as="geometry" />
        </mxCell>
        <mxCell id="D9tbcZHyD1_BeI-9zsL_-28" style="edgeStyle=orthogonalEdgeStyle;rounded=0;orthogonalLoop=1;jettySize=auto;html=1;endArrow=none;endFill=0;" parent="1" source="D9tbcZHyD1_BeI-9zsL_-6" edge="1">
          <mxGeometry relative="1" as="geometry">
            <mxPoint x="-420" y="290" as="targetPoint" />
          </mxGeometry>
        </mxCell>
        <mxCell id="D9tbcZHyD1_BeI-9zsL_-6" value="canvasCollection" style="html=1;whiteSpace=wrap;" parent="1" vertex="1">
          <mxGeometry x="-390" y="350" width="110" height="50" as="geometry" />
        </mxCell>
        <mxCell id="D9tbcZHyD1_BeI-9zsL_-29" style="edgeStyle=orthogonalEdgeStyle;rounded=0;orthogonalLoop=1;jettySize=auto;html=1;endArrow=none;endFill=0;" parent="1" source="D9tbcZHyD1_BeI-9zsL_-7" edge="1">
          <mxGeometry relative="1" as="geometry">
            <mxPoint x="-410" y="375" as="targetPoint" />
          </mxGeometry>
        </mxCell>
        <mxCell id="D9tbcZHyD1_BeI-9zsL_-7" value="IRC collection" style="html=1;whiteSpace=wrap;" parent="1" vertex="1">
          <mxGeometry x="-560" y="350" width="110" height="50" as="geometry" />
        </mxCell>
        <mxCell id="D9tbcZHyD1_BeI-9zsL_-27" style="edgeStyle=orthogonalEdgeStyle;rounded=0;orthogonalLoop=1;jettySize=auto;html=1;" parent="1" source="D9tbcZHyD1_BeI-9zsL_-9" edge="1">
          <mxGeometry relative="1" as="geometry">
            <mxPoint x="-420" y="250" as="targetPoint" />
          </mxGeometry>
        </mxCell>
        <mxCell id="D9tbcZHyD1_BeI-9zsL_-9" value="Xittercollection" style="html=1;whiteSpace=wrap;" parent="1" vertex="1">
          <mxGeometry x="-370" y="270" width="110" height="50" as="geometry" />
        </mxCell>
        <mxCell id="D9tbcZHyD1_BeI-9zsL_-10" value="collector (context)" style="swimlane;fontStyle=1;align=center;verticalAlign=top;childLayout=stackLayout;horizontal=1;startSize=26;horizontalStack=0;resizeParent=1;resizeParentMax=0;resizeLast=0;collapsible=1;marginBottom=0;whiteSpace=wrap;html=1;" parent="1" vertex="1">
          <mxGeometry x="-720" y="120" width="160" height="120" as="geometry" />
        </mxCell>
        <mxCell id="D9tbcZHyD1_BeI-9zsL_-11" value="+ activecollectors []" style="text;strokeColor=none;fillColor=none;align=left;verticalAlign=top;spacingLeft=4;spacingRight=4;overflow=hidden;rotatable=0;points=[[0,0.5],[1,0.5]];portConstraint=eastwest;whiteSpace=wrap;html=1;" parent="D9tbcZHyD1_BeI-9zsL_-10" vertex="1">
          <mxGeometry y="26" width="160" height="44" as="geometry" />
        </mxCell>
        <mxCell id="D9tbcZHyD1_BeI-9zsL_-12" value="" style="line;strokeWidth=1;fillColor=none;align=left;verticalAlign=middle;spacingTop=-1;spacingLeft=3;spacingRight=3;rotatable=0;labelPosition=right;points=[];portConstraint=eastwest;strokeColor=inherit;" parent="D9tbcZHyD1_BeI-9zsL_-10" vertex="1">
          <mxGeometry y="70" width="160" height="8" as="geometry" />
        </mxCell>
        <mxCell id="D9tbcZHyD1_BeI-9zsL_-13" value="+ collect()&lt;br&gt;+ setup()" style="text;strokeColor=none;fillColor=none;align=left;verticalAlign=top;spacingLeft=4;spacingRight=4;overflow=hidden;rotatable=0;points=[[0,0.5],[1,0.5]];portConstraint=eastwest;whiteSpace=wrap;html=1;" parent="D9tbcZHyD1_BeI-9zsL_-10" vertex="1">
          <mxGeometry y="78" width="160" height="42" as="geometry" />
        </mxCell>
        <mxCell id="D9tbcZHyD1_BeI-9zsL_-14" value="abstractcollector&lt;br&gt;" style="swimlane;fontStyle=1;align=center;verticalAlign=top;childLayout=stackLayout;horizontal=1;startSize=26;horizontalStack=0;resizeParent=1;resizeParentMax=0;resizeLast=0;collapsible=1;marginBottom=0;whiteSpace=wrap;html=1;" parent="1" vertex="1">
          <mxGeometry x="-480" y="160" width="160" height="86" as="geometry" />
        </mxCell>
        <mxCell id="D9tbcZHyD1_BeI-9zsL_-15" value="-urlToCollectorsite" style="text;strokeColor=none;fillColor=none;align=left;verticalAlign=top;spacingLeft=4;spacingRight=4;overflow=hidden;rotatable=0;points=[[0,0.5],[1,0.5]];portConstraint=eastwest;whiteSpace=wrap;html=1;" parent="D9tbcZHyD1_BeI-9zsL_-14" vertex="1">
          <mxGeometry y="26" width="160" height="26" as="geometry" />
        </mxCell>
        <mxCell id="D9tbcZHyD1_BeI-9zsL_-16" value="" style="line;strokeWidth=1;fillColor=none;align=left;verticalAlign=middle;spacingTop=-1;spacingLeft=3;spacingRight=3;rotatable=0;labelPosition=right;points=[];portConstraint=eastwest;strokeColor=inherit;" parent="D9tbcZHyD1_BeI-9zsL_-14" vertex="1">
          <mxGeometry y="52" width="160" height="8" as="geometry" />
        </mxCell>
        <mxCell id="D9tbcZHyD1_BeI-9zsL_-17" value="Collect" style="text;strokeColor=none;fillColor=none;align=left;verticalAlign=top;spacingLeft=4;spacingRight=4;overflow=hidden;rotatable=0;points=[[0,0.5],[1,0.5]];portConstraint=eastwest;whiteSpace=wrap;html=1;" parent="D9tbcZHyD1_BeI-9zsL_-14" vertex="1">
          <mxGeometry y="60" width="160" height="26" as="geometry" />
        </mxCell>
        <mxCell id="D9tbcZHyD1_BeI-9zsL_-18" value="" style="edgeStyle=orthogonalEdgeStyle;rounded=0;orthogonalLoop=1;jettySize=auto;html=1;endArrow=none;endFill=0;" parent="1" target="D9tbcZHyD1_BeI-9zsL_-17" edge="1">
          <mxGeometry relative="1" as="geometry">
            <mxPoint x="-560" y="188" as="sourcePoint" />
          </mxGeometry>
        </mxCell>
        <mxCell id="D9tbcZHyD1_BeI-9zsL_-30" style="edgeStyle=orthogonalEdgeStyle;rounded=0;orthogonalLoop=1;jettySize=auto;html=1;endArrow=none;endFill=0;" parent="1" source="D9tbcZHyD1_BeI-9zsL_-8" edge="1">
          <mxGeometry relative="1" as="geometry">
            <mxPoint x="-420" y="305" as="targetPoint" />
          </mxGeometry>
        </mxCell>
        <mxCell id="D9tbcZHyD1_BeI-9zsL_-8" value="FBcollection" style="html=1;whiteSpace=wrap;" parent="1" vertex="1">
          <mxGeometry x="-560" y="280" width="110" height="50" as="geometry" />
        </mxCell>
        <mxCell id="D9tbcZHyD1_BeI-9zsL_-32" value="Abstracttransformation" style="swimlane;fontStyle=1;align=center;verticalAlign=top;childLayout=stackLayout;horizontal=1;startSize=26;horizontalStack=0;resizeParent=1;resizeParentMax=0;resizeLast=0;collapsible=1;marginBottom=0;whiteSpace=wrap;html=1;" parent="1" vertex="1">
          <mxGeometry x="361" y="110" width="160" height="120" as="geometry" />
        </mxCell>
        <mxCell id="D9tbcZHyD1_BeI-9zsL_-33" value="+ field: type" style="text;strokeColor=none;fillColor=none;align=left;verticalAlign=top;spacingLeft=4;spacingRight=4;overflow=hidden;rotatable=0;points=[[0,0.5],[1,0.5]];portConstraint=eastwest;whiteSpace=wrap;html=1;" parent="D9tbcZHyD1_BeI-9zsL_-32" vertex="1">
          <mxGeometry y="26" width="160" height="26" as="geometry" />
        </mxCell>
        <mxCell id="D9tbcZHyD1_BeI-9zsL_-34" value="" style="line;strokeWidth=1;fillColor=none;align=left;verticalAlign=middle;spacingTop=-1;spacingLeft=3;spacingRight=3;rotatable=0;labelPosition=right;points=[];portConstraint=eastwest;strokeColor=inherit;" parent="D9tbcZHyD1_BeI-9zsL_-32" vertex="1">
          <mxGeometry y="52" width="160" height="8" as="geometry" />
        </mxCell>
        <mxCell id="D9tbcZHyD1_BeI-9zsL_-35" value="transpossible()&lt;br&gt;transform()&lt;br&gt;mergetransform()" style="text;strokeColor=none;fillColor=none;align=left;verticalAlign=top;spacingLeft=4;spacingRight=4;overflow=hidden;rotatable=0;points=[[0,0.5],[1,0.5]];portConstraint=eastwest;whiteSpace=wrap;html=1;" parent="D9tbcZHyD1_BeI-9zsL_-32" vertex="1">
          <mxGeometry y="60" width="160" height="60" as="geometry" />
        </mxCell>
        <mxCell id="D9tbcZHyD1_BeI-9zsL_-41" value="" style="edgeStyle=orthogonalEdgeStyle;rounded=0;orthogonalLoop=1;jettySize=auto;html=1;endArrow=none;endFill=0;" parent="1" source="D9tbcZHyD1_BeI-9zsL_-40" target="D9tbcZHyD1_BeI-9zsL_-35" edge="1">
          <mxGeometry relative="1" as="geometry" />
        </mxCell>
        <mxCell id="D9tbcZHyD1_BeI-9zsL_-40" value="&lt;p style=&quot;margin:0px;margin-top:4px;text-align:center;&quot;&gt;&lt;i&gt;&amp;lt;&amp;lt;context&amp;gt;&amp;gt;&lt;/i&gt;&lt;br&gt;&lt;b&gt;Transform&lt;/b&gt;&lt;/p&gt;&lt;hr size=&quot;1&quot;&gt;&lt;p style=&quot;margin:0px;margin-left:4px;&quot;&gt;active transformation[]&lt;br&gt;&lt;/p&gt;&lt;hr size=&quot;1&quot;&gt;&lt;p style=&quot;margin:0px;margin-left:4px;&quot;&gt;newcontent()&lt;/p&gt;" style="verticalAlign=top;align=left;overflow=fill;fontSize=12;fontFamily=Helvetica;html=1;whiteSpace=wrap;" parent="1" vertex="1">
          <mxGeometry x="120" y="130" width="190" height="107" as="geometry" />
        </mxCell>
        <mxCell id="D9tbcZHyD1_BeI-9zsL_-42" value="*" style="text;html=1;align=center;verticalAlign=middle;resizable=0;points=[];autosize=1;strokeColor=none;fillColor=none;" parent="1" vertex="1">
          <mxGeometry x="335" y="178" width="30" height="30" as="geometry" />
        </mxCell>
        <mxCell id="D9tbcZHyD1_BeI-9zsL_-48" style="edgeStyle=orthogonalEdgeStyle;rounded=0;orthogonalLoop=1;jettySize=auto;html=1;endArrow=none;endFill=0;" parent="1" source="D9tbcZHyD1_BeI-9zsL_-43" edge="1">
          <mxGeometry relative="1" as="geometry">
            <mxPoint x="441" y="285" as="targetPoint" />
          </mxGeometry>
        </mxCell>
        <mxCell id="D9tbcZHyD1_BeI-9zsL_-43" value="comicStripTrans" style="html=1;whiteSpace=wrap;" parent="1" vertex="1">
          <mxGeometry x="551" y="260" width="110" height="50" as="geometry" />
        </mxCell>
        <mxCell id="D9tbcZHyD1_BeI-9zsL_-44" value="submitTrans" style="html=1;whiteSpace=wrap;" parent="1" vertex="1">
          <mxGeometry x="386" y="340" width="110" height="50" as="geometry" />
        </mxCell>
        <mxCell id="D9tbcZHyD1_BeI-9zsL_-49" style="edgeStyle=orthogonalEdgeStyle;rounded=0;orthogonalLoop=1;jettySize=auto;html=1;endArrow=none;endFill=0;" parent="1" source="D9tbcZHyD1_BeI-9zsL_-45" edge="1">
          <mxGeometry relative="1" as="geometry">
            <mxPoint x="441" y="280" as="targetPoint" />
          </mxGeometry>
        </mxCell>
        <mxCell id="D9tbcZHyD1_BeI-9zsL_-45" value="turingTestTrans&amp;nbsp;" style="html=1;whiteSpace=wrap;" parent="1" vertex="1">
          <mxGeometry x="276" y="260" width="110" height="50" as="geometry" />
        </mxCell>
        <mxCell id="D9tbcZHyD1_BeI-9zsL_-46" style="edgeStyle=orthogonalEdgeStyle;rounded=0;orthogonalLoop=1;jettySize=auto;html=1;entryX=0.486;entryY=0.994;entryDx=0;entryDy=0;entryPerimeter=0;" parent="1" source="D9tbcZHyD1_BeI-9zsL_-44" target="D9tbcZHyD1_BeI-9zsL_-35" edge="1">
          <mxGeometry relative="1" as="geometry" />
        </mxCell>
        <mxCell id="D9tbcZHyD1_BeI-9zsL_-50" value="Database" style="ellipse;whiteSpace=wrap;html=1;" parent="1" vertex="1">
          <mxGeometry x="680" y="30" width="90" height="50" as="geometry" />
        </mxCell>
        <mxCell id="D9tbcZHyD1_BeI-9zsL_-52" value="Tempstorage" style="verticalAlign=top;align=left;spacingTop=8;spacingLeft=2;spacingRight=12;shape=cube;size=10;direction=south;fontStyle=4;html=1;whiteSpace=wrap;" parent="1" vertex="1">
          <mxGeometry x="-190" y="98" width="100" height="80" as="geometry" />
        </mxCell>
        <mxCell id="D9tbcZHyD1_BeI-9zsL_-53" value="frame" style="shape=umlFrame;whiteSpace=wrap;html=1;pointerEvents=0;" parent="1" vertex="1">
          <mxGeometry x="-120" y="237" width="190" height="150" as="geometry" />
        </mxCell>
        <mxCell id="D9tbcZHyD1_BeI-9zsL_-54" value="Observer" style="html=1;whiteSpace=wrap;" parent="1" vertex="1">
          <mxGeometry x="-70" y="290" width="110" height="50" as="geometry" />
        </mxCell>
        <mxCell id="D9tbcZHyD1_BeI-9zsL_-55" value="" style="endArrow=none;html=1;rounded=0;exitX=0;exitY=0;exitDx=80;exitDy=55;exitPerimeter=0;entryX=0.519;entryY=0.001;entryDx=0;entryDy=0;entryPerimeter=0;" parent="1" source="D9tbcZHyD1_BeI-9zsL_-52" target="D9tbcZHyD1_BeI-9zsL_-53" edge="1">
          <mxGeometry relative="1" as="geometry">
            <mxPoint x="-300" y="300" as="sourcePoint" />
            <mxPoint x="-140" y="300" as="targetPoint" />
          </mxGeometry>
        </mxCell>
        <mxCell id="D9tbcZHyD1_BeI-9zsL_-56" value="" style="endArrow=none;html=1;rounded=0;entryX=0.702;entryY=1.034;entryDx=0;entryDy=0;entryPerimeter=0;exitX=1;exitY=0.5;exitDx=0;exitDy=0;" parent="1" source="D9tbcZHyD1_BeI-9zsL_-15" target="D9tbcZHyD1_BeI-9zsL_-52" edge="1">
          <mxGeometry relative="1" as="geometry">
            <mxPoint x="-240" y="240" as="sourcePoint" />
            <mxPoint x="50" y="300" as="targetPoint" />
          </mxGeometry>
        </mxCell>
        <mxCell id="D9tbcZHyD1_BeI-9zsL_-57" value="" style="endArrow=none;html=1;rounded=0;exitX=1.012;exitY=0.361;exitDx=0;exitDy=0;exitPerimeter=0;entryX=0;entryY=0.5;entryDx=0;entryDy=0;" parent="1" source="D9tbcZHyD1_BeI-9zsL_-53" target="D9tbcZHyD1_BeI-9zsL_-40" edge="1">
          <mxGeometry relative="1" as="geometry">
            <mxPoint x="-60" y="300" as="sourcePoint" />
            <mxPoint x="100" y="300" as="targetPoint" />
          </mxGeometry>
        </mxCell>
      </root>
    </mxGraphModel>
  </diagram>
</mxfile>
